<svg width="16" height="20" viewBox="0 0 16 20" fill="none" xmlns="http://www.w3.org/2000/svg">
<path d="M14 0C15.1046 0 16 0.89543 16 2V13.5858C16 14.1162 15.7893 14.6249 15.4142 15L11 19.4142C10.6249 19.7893 10.1162 20 9.5858 20H2C0.89543 20 0 19.1046 0 18V2C0 0.89543 0.89543 0 2 0H14ZM14 2H2V18H8V13.5C8 12.6716 8.6716 12 9.5 12H14V2ZM13.5858 14H10V17.5858L13.5858 14ZM6 9C6.5523 9 7 9.4477 7 10C7 10.5523 6.5523 11 6 11H5C4.44772 11 4 10.5523 4 10C4 9.4477 4.44772 9 5 9H6ZM11 5C11.5523 5 12 5.44771 12 6C12 6.55229 11.5523 7 11 7H5C4.44772 7 4 6.55229 4 6C4 5.44771 4.44772 5 5 5H11Z" fill="#8491A5"/>
</svg>
