<svg width="20" height="20" viewBox="0 0 20 20" fill="none" xmlns="http://www.w3.org/2000/svg">
<path fill-rule="evenodd" clip-rule="evenodd" d="M13 12C15.6887 12 17.8818 14.1223 17.9954 16.7831L18 17V19C18 19.5523 17.5523 20 17 20C16.4872 20 16.0645 19.614 16.0067 19.1166L16 19V17C16 15.4023 14.7511 14.0963 13.1763 14.0051L13 14H5C3.40232 14 2.09634 15.2489 2.00509 16.8237L2 17V19C2 19.5523 1.55228 20 1 20C0.487169 20 0.0644934 19.614 0.0067277 19.1166L0 19V17C0 14.3113 2.12231 12.1182 4.78311 12.0046L5 12H13ZM19 11C19.5523 11 20 11.4477 20 12C20 12.5523 19.5523 13 19 13H18C17.4477 13 17 12.5523 17 12C17 11.4477 17.4477 11 18 11H19ZM9 0C11.7614 0 14 2.23858 14 5C14 7.76142 11.7614 10 9 10C6.23858 10 4 7.76142 4 5C4 2.23858 6.23858 0 9 0ZM19 8C19.5523 8 20 8.4477 20 9C20 9.5523 19.5523 10 19 10H17C16.4477 10 16 9.5523 16 9C16 8.4477 16.4477 8 17 8H19ZM9 2C7.34315 2 6 3.34315 6 5C6 6.65685 7.34315 8 9 8C10.6569 8 12 6.65685 12 5C12 3.34315 10.6569 2 9 2ZM19 5C19.5523 5 20 5.44772 20 6C20 6.51283 19.614 6.93551 19.1166 6.99327L19 7H16C15.4477 7 15 6.55228 15 6C15 5.48717 15.386 5.06449 15.8834 5.00673L16 5H19Z" fill="#8491A5"/>
</svg>
