<svg width="12" height="14" viewBox="0 0 12 14" fill="none" xmlns="http://www.w3.org/2000/svg">
<path fill-rule="evenodd" clip-rule="evenodd" d="M8.66667 8C10.4592 8 11.9212 9.41489 11.9969 11.1887L12 11.3333V12.6667C12 13.0349 11.7015 13.3333 11.3333 13.3333C10.9914 13.3333 10.7097 13.076 10.6712 12.7444L10.6667 12.6667V11.3333C10.6667 10.2682 9.83408 9.39756 8.78419 9.33673L8.66667 9.33333H3.33333C2.26822 9.33333 1.39756 10.1659 1.33673 11.2158L1.33333 11.3333V12.6667C1.33333 13.0349 1.03485 13.3333 0.666667 13.3333C0.324779 13.3333 0.0429956 13.076 0.00448513 12.7444L0 12.6667V11.3333C0 9.54085 1.41487 8.07879 3.18874 8.00308L3.33333 8H8.66667ZM6 0C7.84093 0 9.33333 1.49239 9.33333 3.33333C9.33333 5.17428 7.84093 6.66667 6 6.66667C4.15905 6.66667 2.66667 5.17428 2.66667 3.33333C2.66667 1.49239 4.15905 0 6 0ZM6 1.33333C4.8954 1.33333 4 2.22877 4 3.33333C4 4.4379 4.8954 5.33333 6 5.33333C7.1046 5.33333 8 4.4379 8 3.33333C8 2.22877 7.1046 1.33333 6 1.33333Z" fill="white"/>
</svg>
